# xmcd CD database file
#
# Track frame offsets:
#	150
#	22273
#	47048
#	62318
#	80207
#	94987
#	110848
#	132245
#	145597
#	158466
#	173143
#	190614
#	201198
#
# Disc length: 2870 seconds
#
# Revision: 0
# Processed by: cddbd v1.5.2PL0 Copyright (c) Steve Scherf et al.
# Submitted via: CDex 1.51
#
DISCID=b00b340d
DTITLE=Jazz - Jazz Lounge
DYEAR=1900
DGENRE=Jazz
TTITLE0=Take Five
TTITLE1=Just the two of us
TTITLE2=Stormy Weather
TTITLE3=My baby just cares for me
TTITLE4=Morning
TTITLE5=Winelight
TTITLE6=Sunny
TTITLE7=All the things you are
TTITLE8=Don´t know why
TTITLE9=Come away whit you
TTITLE10=Over The raibow
TTITLE11=It had to be you
TTITLE12=That ole devil called love
EXTD=
EXTT0=
EXTT1=
EXTT2=
EXTT3=
EXTT4=
EXTT5=
EXTT6=
EXTT7=
EXTT8=
EXTT9=
EXTT10=
EXTT11=
EXTT12=
PLAYORDER=
